<?xml version="1.0" encoding="UTF-8"?>
<svg version="1.1" xmlns="http://www.w3.org/2000/svg" width="1000" height="700">
<path d="M0 0 C0.71027344 0.13390137 1.42054688 0.26780273 2.15234375 0.40576172 C35.25385442 6.76254624 68.28612847 21.46671571 95 42 C96.34964844 43.03253906 96.34964844 43.03253906 97.7265625 44.0859375 C102.98490222 48.20469895 107.95964595 52.59203335 112.87109375 57.1171875 C115.05601736 59.13535665 115.05601736 59.13535665 118 61 C118 61.66 118 62.32 118 63 C118.8353125 63.33451172 118.8353125 63.33451172 119.6875 63.67578125 C150.39837685 81.26190837 172.75287007 134.4041184 181.72802734 166.27954102 C186.7779 184.93779706 190.37533297 203.66625405 190.37060547 223.04663086 C190.37506808 225.09373083 190.41184212 227.13881251 190.44921875 229.18554688 C190.45308594 230.49716797 190.45695312 231.80878906 190.4609375 233.16015625 C190.46915527 234.33199463 190.47737305 235.50383301 190.48583984 236.71118164 C189.72540918 241.85880044 187.21193497 244.93234301 183.375 248.3125 C178.96655665 251.44481501 175.31835295 251.65470449 170 251 C166.6875 249.25 166.6875 249.25 164 247 C163.2575 246.38125 162.515 245.7625 161.75 245.125 C156.93012575 239.27229556 157.68714708 231.86809877 157.5625 224.6875 C157.26847336 214.14569406 156.18817553 204.29292274 154 194 C153.69449219 192.20369141 153.69449219 192.20369141 153.3828125 190.37109375 C148.71239048 163.64590108 136.75251556 137.9632058 121 116 C120.37013184 115.11997314 120.37013184 115.11997314 119.72753906 114.22216797 C113.73085182 105.94805032 107.05759437 98.36949216 100 91 C99.52836426 90.50113281 99.05672852 90.00226563 98.57080078 89.48828125 C90.98516876 81.49421188 82.89872792 74.49806182 74 68 C73.15260254 67.37810791 73.15260254 67.37810791 72.28808594 66.74365234 C55.48593198 54.58305727 36.69981034 45.37635751 17 39 C15.27716797 38.42185547 15.27716797 38.42185547 13.51953125 37.83203125 C10.03461363 36.74533651 6.55184384 35.84360817 3 35 C2.26056152 34.81808105 1.52112305 34.63616211 0.75927734 34.44873047 C-12.40557842 31.32580599 -25.34419803 30.62296205 -38.8125 30.625 C-39.58111359 30.62318726 -40.34972717 30.62137451 -41.14163208 30.61950684 C-62.8096846 30.62529123 -83.58313163 33.53785653 -104 41 C-105.5159375 41.53560547 -105.5159375 41.53560547 -107.0625 42.08203125 C-126.69854377 49.27710121 -144.83281725 59.78529971 -161 73 C-161.81597656 73.66153076 -161.81597656 73.66153076 -162.6484375 74.33642578 C-205.41484124 109.15942179 -230.09277138 158.96128075 -238 213 C-238.26719849 214.69189453 -238.26719849 214.69189453 -238.53979492 216.41796875 C-245.23800235 268.55383052 -227.53295724 323.13992652 -195.79248047 364.27075195 C-192.3633725 368.63729017 -188.71822898 372.77831823 -184.953125 376.859375 C-183.37097392 378.59341258 -181.89053119 380.34699382 -180.4375 382.1875 C-177.25619031 385.85824195 -173.71039348 388.87708548 -170 392 C-168.68515625 393.14662109 -168.68515625 393.14662109 -167.34375 394.31640625 C-141.21235011 416.75990696 -108.93060643 432.00757711 -75 438 C-73.39318359 438.30744141 -73.39318359 438.30744141 -71.75390625 438.62109375 C-63.21198975 440.02697104 -54.70669053 440.26679573 -46.0625 440.375 C-44.90081299 440.40102295 -43.73912598 440.4270459 -42.54223633 440.45385742 C-35.54586799 440.46850368 -30.90705705 439.84822313 -25 436 C-21.37513534 431.82866383 -20.33118438 427.69660547 -20.62109375 422.20703125 C-21.4964207 417.10847736 -23.7024181 414.04069068 -27.703125 410.83203125 C-33.06214043 407.91987063 -39.11896312 408.49088833 -45.06066895 408.50115967 C-72.09543825 408.48641879 -96.29744449 402.0741016 -120 389 C-120.62181152 388.66274902 -121.24362305 388.32549805 -121.88427734 387.97802734 C-160.8744177 366.61203886 -189.35240414 328.89880437 -201.95141602 286.62426758 C-204.2621476 278.5084329 -205.74346637 270.33470508 -207 262 C-207.17128418 261.1025708 -207.34256836 260.2051416 -207.51904297 259.28051758 C-208.07599673 255.48164058 -208.1982791 251.74113121 -208.23828125 247.91015625 C-208.24821106 247.13758484 -208.25814087 246.36501343 -208.26837158 245.56903076 C-208.60805681 212.21895256 -203.60000235 181.525761 -187 152 C-186.33371039 150.77133451 -185.6683525 149.54216333 -185.00390625 148.3125 C-180.87647734 140.78092304 -176.23340673 133.80446919 -171 127 C-170.44441406 126.23945313 -169.88882813 125.47890625 -169.31640625 124.6953125 C-158.76534795 110.73689684 -145.63895791 98.54208703 -131 89 C-130.38415039 88.59845703 -129.76830078 88.19691406 -129.13378906 87.78320312 C-113.48077749 77.72811917 -96.62257783 70.17762738 -78.5 65.8125 C-77.86078613 65.6575708 -77.22157227 65.5026416 -76.56298828 65.34301758 C-64.8335754 62.6716896 -53.13951581 61.60972019 -41.125 61.625 C-40.46034729 61.62487915 -39.79569458 61.6247583 -39.11090088 61.62463379 C-21.698342 61.66926408 -4.40063344 63.95647891 12 70 C13.02351563 70.35707031 14.04703125 70.71414062 15.1015625 71.08203125 C36.53956297 78.88003872 54.944474 90.99311171 72 106 C72.94230469 106.721875 73.88460938 107.44375 74.85546875 108.1875 C75.91701172 109.0846875 75.91701172 109.0846875 77 110 C77 110.66 77 111.32 77 112 C77.66 112 78.32 112 79 112 C81.58265147 114.42452996 83.75027936 117.26963886 86 120 C86.83144531 120.99515625 87.66289063 121.9903125 88.51953125 123.015625 C115.93200876 156.4390433 130.46246554 198.91342715 126.72265625 242.2109375 C124.83154613 254.78231715 119.13782334 266.39053008 109.0625 274.3125 C97.19583276 282.58251327 85.18649683 284.24062062 71 283 C59.47862983 280.64760887 49.24504568 273.09259831 42 264 C35.95571081 253.94921055 32.87404543 244.84781646 32.6875 233.1875 C31.82171872 210.73681968 23.50185909 191.33621531 7 176 C-8.94653806 162.47028853 -26.50373838 158.18614635 -47 159 C-65.9819305 160.75526438 -84.13926302 171.01761174 -96.30224609 185.55664062 C-107.76572354 200.19163505 -113.61428639 216.28583837 -113.4375 234.8125 C-113.42847656 235.95251465 -113.41945313 237.0925293 -113.41015625 238.26708984 C-113.02796546 256.92277766 -106.20366041 275.46565758 -93 289 C-79.04182817 302.22466666 -62.51142294 308.18278838 -43.4375 308.7265625 C-38.27137358 309.13750437 -34.25220359 309.94701062 -30.25 313.3125 C-25.90314409 318.50457789 -24.43225779 321.76354731 -24.64453125 328.56640625 C-25.16977504 332.16230608 -26.66089756 334.27104715 -29 337 C-29.598125 337.7425 -30.19625 338.485 -30.8125 339.25 C-38.27079956 345.21663964 -49.29051116 343.29408695 -58.125 342.375 C-84.08982677 338.60165627 -108.45519286 323.11446306 -124.375 302.4375 C-125.95466082 300.31485003 -127.47987136 298.16693383 -129 296 C-129.84498047 294.80503906 -129.84498047 294.80503906 -130.70703125 293.5859375 C-134.12181039 288.34213418 -136.45898529 282.73583488 -138.75 276.9375 C-139.04414795 276.19346924 -139.3382959 275.44943848 -139.64135742 274.68286133 C-147.57877921 253.79914372 -147.89462444 227.39178224 -142 206 C-141.6596875 204.75734375 -141.319375 203.5146875 -140.96875 202.234375 C-132.61086739 174.78889562 -113.19307903 151.78899362 -88.15283203 137.98144531 C-76.37623606 131.73775152 -62.43508601 126.319883 -49 126 C-47.79601562 125.94972656 -46.59203125 125.89945313 -45.3515625 125.84765625 C-30.72215233 125.42022967 -15.42550091 126.83962371 -2 133 C-1.39591309 133.27473145 -0.79182617 133.54946289 -0.16943359 133.83251953 C26.29195432 146.01418311 47.22926213 166.44969834 58.08203125 193.71875 C62.07636119 204.84901769 64.00006726 216.16895356 64.5 227.9375 C64.80574458 238.00747162 64.80574458 238.00747162 69.4375 246.64453125 C73.26237526 249.85848893 76.84346628 250.72570002 81.7890625 250.421875 C86.41635919 249.53892793 89.84492432 247.58478479 92.66821289 243.71118164 C94.16394779 240.66624378 94.39992782 238.68492433 94.43359375 235.30859375 C94.44511475 234.20902344 94.45663574 233.10945312 94.46850586 231.9765625 C94.45827393 230.80867187 94.44804199 229.64078125 94.4375 228.4375 C94.42505249 226.62572266 94.42505249 226.62572266 94.41235352 224.77734375 C93.74413686 188.86010421 76.98327018 156.7420629 51.81445312 131.72802734 C46.88534195 127.03369892 41.54546086 122.93402621 36 119 C35.44376953 118.60087402 34.88753906 118.20174805 34.31445312 117.79052734 C5.90937596 97.67993158 -29.59304712 91.06785939 -63.73193359 96.52148438 C-97.84691991 102.68104046 -129.57778937 123.79149992 -149.36328125 152.03515625 C-153.70150789 158.43693746 -157.43276052 165.14562344 -161 172 C-161.55429687 173.04285156 -162.10859375 174.08570313 -162.6796875 175.16015625 C-172.17651499 194.22762078 -175.42752186 214.93289949 -175.375 236 C-175.37445618 236.8194812 -175.37391235 237.6389624 -175.37335205 238.48327637 C-175.33505302 251.03371492 -174.68787017 262.92040089 -171 275 C-170.78569336 275.72445313 -170.57138672 276.44890625 -170.35058594 277.1953125 C-164.3738557 296.89155305 -154.37368008 314.40115753 -141 330 C-140.31292969 330.83402344 -139.62585938 331.66804688 -138.91796875 332.52734375 C-119.08413543 355.82013873 -88.11358119 371.05814021 -58 375 C-52.16166742 375.35678938 -46.31844279 375.41173883 -40.47070312 375.47851562 C-25.93787782 375.80536469 -12.57649692 379.18393688 -1.62109375 389.24609375 C9.20343373 400.95744998 12.55579906 412.98369034 12.2734375 428.60546875 C11.70354909 441.63672908 5.60205694 452.88080721 -3.6875 461.8125 C-19.82624835 475.45707815 -38.75060569 475.1649041 -58.8046875 473.6875 C-63.55660362 473.26690487 -68.2763465 472.66221123 -73 472 C-74.41200684 471.80664062 -74.41200684 471.80664062 -75.85253906 471.609375 C-89.72226632 469.65830949 -102.84441983 466.82114292 -116 462 C-117.19737793 461.5671167 -117.19737793 461.5671167 -118.41894531 461.12548828 C-146.06289214 450.99594851 -170.87376802 436.04384823 -192.59375 416.1796875 C-195.53473808 413.51561063 -198.55725342 410.95510238 -201.6015625 408.41015625 C-203 407 -203 407 -203 405 C-203.66 405 -204.32 405 -205 405 C-207.58203948 402.58479999 -209.74469774 399.71626776 -212 397 C-212.7115625 396.15477783 -212.7115625 396.15477783 -213.4375 395.29248047 C-240.98203125 362.52309594 -259.54687953 323.99137296 -268 282 C-268.17934082 281.13552246 -268.35868164 280.27104492 -268.54345703 279.38037109 C-271.34781861 265.15805274 -271.30691288 250.7522752 -271.375 236.3125 C-271.3830365 235.36008423 -271.391073 234.40766846 -271.39935303 233.4263916 C-271.48004568 220.80410466 -270.59917831 208.702999 -268.40008545 196.26960754 C-267.9763553 193.86586816 -267.57962694 191.45853041 -267.18530273 189.04980469 C-262.00470815 157.95231247 -248.83792108 126.88304014 -231 101 C-230.5865332 100.39414063 -230.17306641 99.78828125 -229.74707031 99.1640625 C-220.85189041 86.20075651 -210.80619884 74.39837234 -200 63 C-198.93265625 61.86884766 -198.93265625 61.86884766 -197.84375 60.71484375 C-192.61768332 55.32813977 -186.8941793 50.63569237 -181 46 C-179.66195312 44.93652344 -179.66195312 44.93652344 -178.296875 43.8515625 C-150.38698078 22.25647675 -117.69022009 6.85228735 -83 0 C-82.2795752 -0.14808105 -81.55915039 -0.29616211 -80.81689453 -0.44873047 C-55.07738835 -5.49665136 -25.68163934 -5.16668707 0 0 Z " fill="#000000" transform="translate(528.6, 35.4) scale(1.3)"/>
</svg>
